<svg id="visual" viewBox="0 0 900 450" width="900" height="450" xmlns="http://www.w3.org/2000/svg" xmlns:xlink="http://www.w3.org/1999/xlink" version="1.1"><path d="M0 33L10 30.7C20 28.3 40 23.7 60 23.7C80 23.7 100 28.3 120 30.7C140 33 160 33 180 31.5C200 30 220 27 240 27C260 27 280 30 300 33C320 36 340 39 360 36.7C380 34.3 400 26.7 420 25.2C440 23.7 460 28.3 480 31.3C500 34.3 520 35.7 540 36.3C560 37 580 37 600 34.8C620 32.7 640 28.3 660 27.7C680 27 700 30 720 30.7C740 31.3 760 29.7 780 31.2C800 32.7 820 37.3 840 37.3C860 37.3 880 32.7 890 30.3L900 28L900 0L890 0C880 0 860 0 840 0C820 0 800 0 780 0C760 0 740 0 720 0C700 0 680 0 660 0C640 0 620 0 600 0C580 0 560 0 540 0C520 0 500 0 480 0C460 0 440 0 420 0C400 0 380 0 360 0C340 0 320 0 300 0C280 0 260 0 240 0C220 0 200 0 180 0C160 0 140 0 120 0C100 0 80 0 60 0C40 0 20 0 10 0L0 0Z" fill="#6198ff"></path><path d="M0 150L10 138.7C20 127.3 40 104.7 60 109.8C80 115 100 148 120 152.5C140 157 160 133 180 124.8C200 116.7 220 124.3 240 123.7C260 123 280 114 300 124.5C320 135 340 165 360 171.7C380 178.3 400 161.7 420 147.3C440 133 460 121 480 126.3C500 131.7 520 154.3 540 160.3C560 166.3 580 155.7 600 144.3C620 133 640 121 660 119.5C680 118 700 127 720 130C740 133 760 130 780 127.8C800 125.7 820 124.3 840 123.7C860 123 880 123 890 123L900 123L900 26L890 28.3C880 30.7 860 35.3 840 35.3C820 35.3 800 30.7 780 29.2C760 27.7 740 29.3 720 28.7C700 28 680 25 660 25.7C640 26.3 620 30.7 600 32.8C580 35 560 35 540 34.3C520 33.7 500 32.3 480 29.3C460 26.3 440 21.7 420 23.2C400 24.7 380 32.3 360 34.7C340 37 320 34 300 31C280 28 260 25 240 25C220 25 200 28 180 29.5C160 31 140 31 120 28.7C100 26.3 80 21.7 60 21.7C40 21.7 20 26.3 10 28.7L0 31Z" fill="#4c8aff"></path><path d="M0 172L10 166.8C20 161.7 40 151.3 60 157.3C80 163.3 100 185.7 120 184.8C140 184 160 160 180 154C200 148 220 160 240 161.5C260 163 280 154 300 163C320 172 340 199 360 208C380 217 400 208 420 193C440 178 460 157 480 157.8C500 158.7 520 181.3 540 191.2C560 201 580 198 600 187.5C620 177 640 159 660 153.7C680 148.3 700 155.7 720 159.3C740 163 760 163 780 161.5C800 160 820 157 840 159.3C860 161.7 880 169.3 890 173.2L900 177L900 121L890 121C880 121 860 121 840 121.7C820 122.3 800 123.7 780 125.8C760 128 740 131 720 128C700 125 680 116 660 117.5C640 119 620 131 600 142.3C580 153.7 560 164.3 540 158.3C520 152.3 500 129.7 480 124.3C460 119 440 131 420 145.3C400 159.7 380 176.3 360 169.7C340 163 320 133 300 122.5C280 112 260 121 240 121.7C220 122.3 200 114.7 180 122.8C160 131 140 155 120 150.5C100 146 80 113 60 107.8C40 102.7 20 125.3 10 136.7L0 148Z" fill="#367cff"></path><path d="M0 217L10 211.8C20 206.7 40 196.3 60 200.2C80 204 100 222 120 221.2C140 220.3 160 200.7 180 198.3C200 196 220 211 240 214C260 217 280 208 300 215.5C320 223 340 247 360 256C380 265 400 259 420 247.8C440 236.7 460 220.3 480 218.8C500 217.3 520 230.7 540 238.8C560 247 580 250 600 238.8C620 227.7 640 202.3 660 197.8C680 193.3 700 209.7 720 211.8C740 214 760 202 780 194.5C800 187 820 184 840 187C860 190 880 199 890 203.5L900 208L900 175L890 171.2C880 167.3 860 159.7 840 157.3C820 155 800 158 780 159.5C760 161 740 161 720 157.3C700 153.7 680 146.3 660 151.7C640 157 620 175 600 185.5C580 196 560 199 540 189.2C520 179.3 500 156.7 480 155.8C460 155 440 176 420 191C400 206 380 215 360 206C340 197 320 170 300 161C280 152 260 161 240 159.5C220 158 200 146 180 152C160 158 140 182 120 182.8C100 183.7 80 161.3 60 155.3C40 149.3 20 159.7 10 164.8L0 170Z" fill="#196eff"></path><path d="M0 303L10 292.5C20 282 40 261 60 263.2C80 265.3 100 290.7 120 291.3C140 292 160 268 180 259.8C200 251.7 220 259.3 240 259.3C260 259.3 280 251.7 300 260.7C320 269.7 340 295.3 360 310.3C380 325.3 400 329.7 420 319.2C440 308.7 460 283.3 480 278.2C500 273 520 288 540 292.5C560 297 580 291 600 285C620 279 640 273 660 275.2C680 277.3 700 287.7 720 290.7C740 293.7 760 289.3 780 283.3C800 277.3 820 269.7 840 271.8C860 274 880 286 890 292L900 298L900 206L890 201.5C880 197 860 188 840 185C820 182 800 185 780 192.5C760 200 740 212 720 209.8C700 207.7 680 191.3 660 195.8C640 200.3 620 225.7 600 236.8C580 248 560 245 540 236.8C520 228.7 500 215.3 480 216.8C460 218.3 440 234.7 420 245.8C400 257 380 263 360 254C340 245 320 221 300 213.5C280 206 260 215 240 212C220 209 200 194 180 196.3C160 198.7 140 218.3 120 219.2C100 220 80 202 60 198.2C40 194.3 20 204.7 10 209.8L0 215Z" fill="#0062f5"></path><path d="M0 321L10 312.7C20 304.3 40 287.7 60 290.7C80 293.7 100 316.3 120 318.7C140 321 160 303 180 297C200 291 220 297 240 297C260 297 280 291 300 297C320 303 340 321 360 333.7C380 346.3 400 353.7 420 346.8C440 340 460 319 480 313C500 307 520 316 540 320.5C560 325 580 325 600 322.8C620 320.7 640 316.3 660 315.7C680 315 700 318 720 319.5C740 321 760 321 780 315.7C800 310.3 820 299.7 840 299.7C860 299.7 880 310.3 890 315.7L900 321L900 296L890 290C880 284 860 272 840 269.8C820 267.7 800 275.3 780 281.3C760 287.3 740 291.7 720 288.7C700 285.7 680 275.3 660 273.2C640 271 620 277 600 283C580 289 560 295 540 290.5C520 286 500 271 480 276.2C460 281.3 440 306.7 420 317.2C400 327.7 380 323.3 360 308.3C340 293.3 320 267.7 300 258.7C280 249.7 260 257.3 240 257.3C220 257.3 200 249.7 180 257.8C160 266 140 290 120 289.3C100 288.7 80 263.3 60 261.2C40 259 20 280 10 290.5L0 301Z" fill="#005be1"></path><path d="M0 366L10 356.2C20 346.3 40 326.7 60 328.2C80 329.7 100 352.3 120 356.2C140 360 160 345 180 339.7C200 334.3 220 338.7 240 338.7C260 338.7 280 334.3 300 339.7C320 345 340 360 360 369.7C380 379.3 400 383.7 420 375.3C440 367 460 346 480 343.8C500 341.7 520 358.3 540 365.2C560 372 580 369 600 363C620 357 640 348 660 348.7C680 349.3 700 359.7 720 363.3C740 367 760 364 780 356.5C800 349 820 337 840 334C860 331 880 337 890 340L900 343L900 319L890 313.7C880 308.3 860 297.7 840 297.7C820 297.7 800 308.3 780 313.7C760 319 740 319 720 317.5C700 316 680 313 660 313.7C640 314.3 620 318.7 600 320.8C580 323 560 323 540 318.5C520 314 500 305 480 311C460 317 440 338 420 344.8C400 351.7 380 344.3 360 331.7C340 319 320 301 300 295C280 289 260 295 240 295C220 295 200 289 180 295C160 301 140 319 120 316.7C100 314.3 80 291.7 60 288.7C40 285.7 20 302.3 10 310.7L0 319Z" fill="#0053ce"></path><path d="M0 451L10 451C20 451 40 451 60 451C80 451 100 451 120 451C140 451 160 451 180 451C200 451 220 451 240 451C260 451 280 451 300 451C320 451 340 451 360 451C380 451 400 451 420 451C440 451 460 451 480 451C500 451 520 451 540 451C560 451 580 451 600 451C620 451 640 451 660 451C680 451 700 451 720 451C740 451 760 451 780 451C800 451 820 451 840 451C860 451 880 451 890 451L900 451L900 341L890 338C880 335 860 329 840 332C820 335 800 347 780 354.5C760 362 740 365 720 361.3C700 357.7 680 347.3 660 346.7C640 346 620 355 600 361C580 367 560 370 540 363.2C520 356.3 500 339.7 480 341.8C460 344 440 365 420 373.3C400 381.7 380 377.3 360 367.7C340 358 320 343 300 337.7C280 332.3 260 336.7 240 336.7C220 336.7 200 332.3 180 337.7C160 343 140 358 120 354.2C100 350.3 80 327.7 60 326.2C40 324.7 20 344.3 10 354.2L0 364Z" fill="#004cbb"></path></svg>